<svg width="216" height="36" viewBox="0 0 216 36" fill="none" xmlns="http://www.w3.org/2000/svg">
<path d="M4.07227 0C4.5638 0 5.0293 0.0439453 5.46875 0.131836C5.9082 0.216471 6.29069 0.336914 6.61621 0.493164C6.94499 0.649414 7.2054 0.836589 7.39746 1.05469C7.58952 1.26953 7.68555 1.50716 7.68555 1.76758V2.62695H6.39648V2.14844C6.39648 2.00846 6.34277 1.875 6.23535 1.74805C6.12793 1.61784 5.97331 1.50553 5.77148 1.41113C5.57292 1.31348 5.3304 1.23698 5.04395 1.18164C4.75749 1.12305 4.43359 1.09375 4.07227 1.09375C3.72396 1.09375 3.40658 1.12142 3.12012 1.17676C2.83366 1.22884 2.58789 1.30208 2.38281 1.39648C2.17773 1.49089 2.01823 1.60319 1.9043 1.7334C1.79362 1.86035 1.73828 1.9987 1.73828 2.14844V5.5957C1.73828 5.73893 1.79362 5.87402 1.9043 6.00098C2.01823 6.12793 2.17773 6.23861 2.38281 6.33301C2.58789 6.42415 2.83366 6.4974 3.12012 6.55273C3.40658 6.60482 3.72396 6.63086 4.07227 6.63086C4.43359 6.63086 4.75749 6.60319 5.04395 6.54785C5.3304 6.48926 5.57292 6.41276 5.77148 6.31836C5.97331 6.22396 6.12793 6.11491 6.23535 5.99121C6.34277 5.86426 6.39648 5.73242 6.39648 5.5957V5.10742H7.68555V5.9668C7.68555 6.13932 7.6416 6.30371 7.55371 6.45996C7.46582 6.61296 7.34212 6.75456 7.18262 6.88477C7.02637 7.01497 6.83757 7.13216 6.61621 7.23633C6.39811 7.33724 6.15397 7.42513 5.88379 7.5C5.61686 7.57161 5.3304 7.62695 5.02441 7.66602C4.71842 7.70508 4.40104 7.72461 4.07227 7.72461C3.74349 7.72461 3.42611 7.70508 3.12012 7.66602C2.81413 7.62695 2.52604 7.57161 2.25586 7.5C1.98893 7.42513 1.74479 7.33724 1.52344 7.23633C1.30534 7.13216 1.11654 7.01497 0.957031 6.88477C0.800781 6.75456 0.678711 6.61296 0.59082 6.45996C0.50293 6.30371 0.458984 6.13932 0.458984 5.9668V1.76758C0.458984 1.59505 0.50293 1.43066 0.59082 1.27441C0.678711 1.11816 0.800781 0.974935 0.957031 0.844727C1.11654 0.714518 1.30534 0.597331 1.52344 0.493164C1.74479 0.388997 1.98893 0.301107 2.25586 0.229492C2.52604 0.154622 2.81413 0.0976562 3.12012 0.0585938C3.42611 0.0195312 3.74349 0 4.07227 0Z" fill="white"/>
<path d="M14.4824 5.57617C14.401 5.50456 14.3001 5.43457 14.1797 5.36621C14.0592 5.29785 13.9111 5.23763 13.7354 5.18555C13.5596 5.13021 13.3496 5.08626 13.1055 5.05371C12.8646 5.0179 12.5814 5 12.2559 5C11.9661 5 11.6911 5.00651 11.4307 5.01953C11.1735 5.0293 10.9473 5.06185 10.752 5.11719C10.5566 5.16927 10.402 5.25391 10.2881 5.37109C10.1742 5.48828 10.1172 5.65104 10.1172 5.85938V6.48438C10.4036 6.52995 10.7194 6.56738 11.0645 6.59668C11.4095 6.62598 11.7936 6.64062 12.2168 6.64062C12.5553 6.64062 12.915 6.62923 13.2959 6.60645C13.68 6.5804 14.0755 6.52995 14.4824 6.45508V5.57617ZM12.2852 2.00195C12.4479 2.00195 12.6449 2.01009 12.876 2.02637C13.1071 2.04264 13.348 2.07194 13.5986 2.11426C13.8493 2.15332 14.0967 2.20866 14.3408 2.28027C14.5882 2.34863 14.8096 2.43978 15.0049 2.55371C15.2035 2.66439 15.363 2.79785 15.4834 2.9541C15.6038 3.11035 15.6641 3.29427 15.6641 3.50586V7.28516C15.3906 7.34049 15.0814 7.3877 14.7363 7.42676C14.4401 7.46257 14.0869 7.49512 13.6768 7.52441C13.2666 7.55371 12.8092 7.56836 12.3047 7.56836C11.8034 7.56836 11.2695 7.5472 10.7031 7.50488C10.14 7.46257 9.55078 7.38932 8.93555 7.28516V5.52734C8.93555 5.33854 8.97949 5.17415 9.06738 5.03418C9.15853 4.89095 9.28223 4.76888 9.43848 4.66797C9.59473 4.56706 9.77865 4.48405 9.99023 4.41895C10.2018 4.35384 10.4297 4.30176 10.6738 4.2627C10.918 4.22363 11.1719 4.19759 11.4355 4.18457C11.6992 4.16829 11.9629 4.16016 12.2266 4.16016C12.627 4.16016 12.9671 4.1862 13.2471 4.23828C13.5303 4.28711 13.7646 4.34082 13.9502 4.39941C14.165 4.47103 14.3424 4.55078 14.4824 4.63867V3.84766C14.4824 3.71419 14.4499 3.60026 14.3848 3.50586C14.3197 3.4082 14.2318 3.32682 14.1211 3.26172C14.0104 3.19336 13.8835 3.13965 13.7402 3.10059C13.597 3.05827 13.4473 3.02572 13.291 3.00293C13.1348 2.98014 12.9753 2.96549 12.8125 2.95898C12.653 2.95247 12.5033 2.94922 12.3633 2.94922C12.2168 2.94922 12.0605 2.9541 11.8945 2.96387C11.7285 2.97038 11.5625 2.98503 11.3965 3.00781C11.2337 3.0306 11.0758 3.06315 10.9229 3.10547C10.7731 3.14453 10.6396 3.19824 10.5225 3.2666C10.4053 3.33496 10.3109 3.41797 10.2393 3.51562C10.1709 3.61003 10.1367 3.72396 10.1367 3.85742L8.92578 3.54492C8.92578 3.32682 8.97949 3.13802 9.08691 2.97852C9.19434 2.81576 9.33594 2.67741 9.51172 2.56348C9.69076 2.44954 9.89583 2.35677 10.127 2.28516C10.3581 2.21029 10.5973 2.15332 10.8447 2.11426C11.0954 2.07194 11.3444 2.04264 11.5918 2.02637C11.8392 2.01009 12.0703 2.00195 12.2852 2.00195Z" fill="white"/>
<path d="M21.5332 2.00195C21.5332 2.34049 21.5218 2.69368 21.499 3.06152C21.4762 3.42611 21.4323 3.80208 21.3672 4.18945H20.1855C20.2148 4.07878 20.2425 3.95833 20.2686 3.82812C20.2881 3.71745 20.306 3.58887 20.3223 3.44238C20.3418 3.29264 20.3516 3.13477 20.3516 2.96875C20.0651 2.97526 19.8275 3.00293 19.6387 3.05176C19.4531 3.09733 19.2985 3.15267 19.1748 3.21777C19.0511 3.27962 18.9502 3.3431 18.8721 3.4082C18.7939 3.47331 18.724 3.52539 18.6621 3.56445V7.56836H17.4121V3.53516C17.3991 3.43099 17.3682 3.3431 17.3193 3.27148C17.2738 3.19987 17.2249 3.14128 17.1729 3.0957C17.1143 3.04036 17.0475 2.99479 16.9727 2.95898L17.4902 2.00195C17.6107 2.04427 17.7295 2.10124 17.8467 2.17285C17.9476 2.2347 18.0534 2.31445 18.1641 2.41211C18.278 2.50651 18.3789 2.6237 18.4668 2.76367C18.6328 2.64974 18.7858 2.55371 18.9258 2.47559C19.0658 2.39421 19.2008 2.32585 19.3311 2.27051C19.4645 2.21517 19.6012 2.17285 19.7412 2.14355C19.8844 2.111 20.0407 2.08496 20.21 2.06543C20.3825 2.0459 20.5745 2.03288 20.7861 2.02637C21.001 2.0166 21.25 2.00846 21.5332 2.00195Z" fill="white"/>
<path d="M25.1953 12.8691C26.0547 12.8691 26.9531 12.9668 27.8906 13.1621C28.8379 13.3574 29.7559 13.6113 30.6445 13.9238V7.27344H34.4824V28.4258C33.9648 28.582 33.3447 28.7285 32.6221 28.8652C31.9092 29.002 31.1426 29.124 30.3223 29.2314C29.502 29.3291 28.6475 29.4121 27.7588 29.4805C26.8799 29.5391 26.0254 29.5684 25.1953 29.5684C23.6914 29.5684 22.3486 29.4658 21.167 29.2607C19.9854 29.0459 18.9844 28.7188 18.1641 28.2793C17.3438 27.8398 16.7188 27.2832 16.2891 26.6094C15.8594 25.9355 15.6445 25.1348 15.6445 24.207V18.2305C15.6445 17.3027 15.8594 16.502 16.2891 15.8281C16.7188 15.1543 17.3438 14.5977 18.1641 14.1582C18.9844 13.7188 19.9854 13.3965 21.167 13.1914C22.3486 12.9766 23.6914 12.8691 25.1953 12.8691ZM26.25 26.8438C26.6406 26.8438 27.0361 26.8242 27.4365 26.7852C27.8467 26.7461 28.2422 26.6924 28.623 26.624C29.0137 26.5557 29.3799 26.4775 29.7217 26.3896C30.0732 26.3018 30.3809 26.209 30.6445 26.1113V16.9121C29.9707 16.5898 29.2773 16.3262 28.5645 16.1211C27.8613 15.9062 27.0898 15.7988 26.25 15.7988C25.6445 15.7988 25.0537 15.8135 24.4775 15.8428C23.9111 15.8623 23.3789 15.916 22.8809 16.0039C22.3828 16.082 21.9238 16.1992 21.5039 16.3555C21.084 16.502 20.7227 16.7021 20.4199 16.9561C20.127 17.21 19.8975 17.5225 19.7314 17.8936C19.5654 18.2646 19.4824 18.709 19.4824 19.2266V23.5332C19.4824 24.3242 19.6631 24.9443 20.0244 25.3936C20.3955 25.833 20.8887 26.1602 21.5039 26.375C22.1191 26.5898 22.8369 26.7217 23.6572 26.7705C24.4775 26.8193 25.3418 26.8438 26.25 26.8438Z" fill="white"/>
<path d="M49.3359 12.8691C49.834 12.8691 50.4346 12.8936 51.1377 12.9424C51.8408 12.9912 52.5684 13.0791 53.3203 13.2061C54.082 13.3232 54.834 13.4941 55.5762 13.7188C56.3184 13.9336 56.9824 14.2119 57.5684 14.5537C58.1641 14.8955 58.6426 15.3105 59.0039 15.7988C59.375 16.2773 59.5605 16.8438 59.5605 17.498V22.4492H42.7734V26.1992C43.9551 26.3652 45.0928 26.4824 46.1865 26.5508C47.2803 26.6094 48.3301 26.6387 49.3359 26.6387C50.8691 26.6387 52.2559 26.5801 53.4961 26.4629C54.7461 26.3457 55.8252 26.2139 56.7334 26.0674C57.7783 25.9014 58.7207 25.7109 59.5605 25.4961V28.748C57.7051 29.041 55.9131 29.251 54.1846 29.3779C52.4658 29.5049 50.8496 29.5684 49.3359 29.5684C47.8125 29.5684 46.4307 29.5293 45.1904 29.4512C43.9502 29.3633 42.8857 29.2656 41.9971 29.1582C40.9619 29.041 40.0293 28.9043 39.1992 28.748V17.498C39.1992 16.8438 39.3604 16.2773 39.6826 15.7988C40.0049 15.3105 40.4346 14.8955 40.9717 14.5537C41.5088 14.2119 42.124 13.9336 42.8174 13.7188C43.5205 13.4941 44.248 13.3232 45 13.2061C45.752 13.0791 46.499 12.9912 47.2412 12.9424C47.9932 12.8936 48.6914 12.8691 49.3359 12.8691ZM42.7734 20.1055H55.9277V18.4062C55.9277 18.0059 55.8301 17.6641 55.6348 17.3809C55.4395 17.0879 55.1758 16.8438 54.8438 16.6484C54.5215 16.4531 54.1406 16.2969 53.7012 16.1797C53.2715 16.0527 52.8223 15.96 52.3535 15.9014C51.8848 15.833 51.4111 15.7891 50.9326 15.7695C50.4639 15.75 50.0195 15.7402 49.5996 15.7402C49.1602 15.7402 48.6865 15.75 48.1787 15.7695C47.6807 15.7891 47.1777 15.833 46.6699 15.9014C46.1621 15.9697 45.6738 16.0674 45.2051 16.1943C44.7363 16.3115 44.3213 16.4727 43.96 16.6777C43.5986 16.873 43.3105 17.1172 43.0957 17.4102C42.8809 17.6934 42.7734 18.0352 42.7734 18.4355V20.1055Z" fill="white"/>
<path d="M80.5371 23.5918C80.293 23.377 79.9902 23.167 79.6289 22.9619C79.2676 22.7568 78.8232 22.5762 78.2959 22.4199C77.7686 22.2539 77.1387 22.1221 76.4062 22.0244C75.6836 21.917 74.834 21.8633 73.8574 21.8633C72.9883 21.8633 72.1631 21.8828 71.3818 21.9219C70.6104 21.9512 69.9316 22.0488 69.3457 22.2148C68.7598 22.3711 68.2959 22.625 67.9541 22.9766C67.6123 23.3281 67.4414 23.8164 67.4414 24.4414V26.3164C68.3008 26.4531 69.248 26.5654 70.2832 26.6533C71.3184 26.7412 72.4707 26.7852 73.7402 26.7852C74.7559 26.7852 75.835 26.751 76.9775 26.6826C78.1299 26.6045 79.3164 26.4531 80.5371 26.2285V23.5918ZM73.9453 12.8691C74.4336 12.8691 75.0244 12.8936 75.7178 12.9424C76.4111 12.9912 77.1338 13.0791 77.8857 13.2061C78.6377 13.3232 79.3799 13.4893 80.1123 13.7041C80.8545 13.9092 81.5186 14.1826 82.1045 14.5244C82.7002 14.8564 83.1787 15.2568 83.54 15.7256C83.9014 16.1943 84.082 16.7461 84.082 17.3809V28.7188C83.2617 28.8848 82.334 29.0264 81.2988 29.1436C80.4102 29.251 79.3506 29.3486 78.1201 29.4365C76.8896 29.5244 75.5176 29.5684 74.0039 29.5684C72.5 29.5684 70.8984 29.5049 69.1992 29.3779C67.5098 29.251 65.7422 29.0312 63.8965 28.7188V23.4453C63.8965 22.8789 64.0283 22.3857 64.292 21.9658C64.5654 21.5361 64.9365 21.1699 65.4053 20.8672C65.874 20.5645 66.4258 20.3154 67.0605 20.1201C67.6953 19.9248 68.3789 19.7686 69.1113 19.6514C69.8438 19.5342 70.6055 19.4561 71.3965 19.417C72.1875 19.3682 72.9785 19.3438 73.7695 19.3438C74.9707 19.3438 75.9912 19.4219 76.8311 19.5781C77.6807 19.7246 78.3838 19.8857 78.9404 20.0615C79.585 20.2764 80.1172 20.5156 80.5371 20.7793V18.4062C80.5371 18.0059 80.4395 17.6641 80.2441 17.3809C80.0488 17.0879 79.7852 16.8438 79.4531 16.6484C79.1211 16.4434 78.7402 16.2822 78.3105 16.165C77.8809 16.0381 77.4316 15.9404 76.9629 15.8721C76.4941 15.8037 76.0156 15.7598 75.5273 15.7402C75.0488 15.7207 74.5996 15.7109 74.1797 15.7109C73.7402 15.7109 73.2715 15.7256 72.7734 15.7549C72.2754 15.7744 71.7773 15.8184 71.2793 15.8867C70.791 15.9551 70.3174 16.0527 69.8584 16.1797C69.4092 16.2969 69.0088 16.458 68.6572 16.6631C68.3057 16.8682 68.0225 17.1172 67.8076 17.4102C67.6025 17.6934 67.5 18.0352 67.5 18.4355L63.8672 17.498C63.8672 16.8438 64.0283 16.2773 64.3506 15.7988C64.6729 15.3105 65.0977 14.8955 65.625 14.5537C66.1621 14.2119 66.7773 13.9336 67.4707 13.7188C68.1641 13.4941 68.8818 13.3232 69.624 13.2061C70.376 13.0791 71.123 12.9912 71.8652 12.9424C72.6074 12.8936 73.3008 12.8691 73.9453 12.8691Z" fill="white"/>
<path d="M92.5195 29.5684H89.1797V7.56641H92.5195V29.5684Z" fill="white"/>
<path d="M107.988 12.8691C108.486 12.8691 109.087 12.8936 109.79 12.9424C110.493 12.9912 111.221 13.0791 111.973 13.2061C112.734 13.3232 113.486 13.4941 114.229 13.7188C114.971 13.9336 115.635 14.2119 116.221 14.5537C116.816 14.8955 117.295 15.3105 117.656 15.7988C118.027 16.2773 118.213 16.8438 118.213 17.498V22.4492H101.426V26.1992C102.607 26.3652 103.745 26.4824 104.839 26.5508C105.933 26.6094 106.982 26.6387 107.988 26.6387C109.521 26.6387 110.908 26.5801 112.148 26.4629C113.398 26.3457 114.478 26.2139 115.386 26.0674C116.431 25.9014 117.373 25.7109 118.213 25.4961V28.748C116.357 29.041 114.565 29.251 112.837 29.3779C111.118 29.5049 109.502 29.5684 107.988 29.5684C106.465 29.5684 105.083 29.5293 103.843 29.4512C102.603 29.3633 101.538 29.2656 100.649 29.1582C99.6143 29.041 98.6816 28.9043 97.8516 28.748V17.498C97.8516 16.8438 98.0127 16.2773 98.335 15.7988C98.6572 15.3105 99.0869 14.8955 99.624 14.5537C100.161 14.2119 100.776 13.9336 101.47 13.7188C102.173 13.4941 102.9 13.3232 103.652 13.2061C104.404 13.0791 105.151 12.9912 105.894 12.9424C106.646 12.8936 107.344 12.8691 107.988 12.8691ZM101.426 20.1055H114.58V18.4062C114.58 18.0059 114.482 17.6641 114.287 17.3809C114.092 17.0879 113.828 16.8438 113.496 16.6484C113.174 16.4531 112.793 16.2969 112.354 16.1797C111.924 16.0527 111.475 15.96 111.006 15.9014C110.537 15.833 110.063 15.7891 109.585 15.7695C109.116 15.75 108.672 15.7402 108.252 15.7402C107.812 15.7402 107.339 15.75 106.831 15.7695C106.333 15.7891 105.83 15.833 105.322 15.9014C104.814 15.9697 104.326 16.0674 103.857 16.1943C103.389 16.3115 102.974 16.4727 102.612 16.6777C102.251 16.873 101.963 17.1172 101.748 17.4102C101.533 17.6934 101.426 18.0352 101.426 18.4355V20.1055Z" fill="white"/>
<path d="M135.703 12.8691C135.703 13.8848 135.669 14.9443 135.601 16.0479C135.532 17.1416 135.4 18.2695 135.205 19.4316H131.66C131.748 19.0996 131.831 18.7383 131.909 18.3477C131.968 18.0156 132.021 17.6299 132.07 17.1904C132.129 16.7412 132.158 16.2676 132.158 15.7695C131.299 15.7891 130.586 15.8721 130.02 16.0186C129.463 16.1553 128.999 16.3213 128.628 16.5166C128.257 16.7021 127.954 16.8926 127.72 17.0879C127.485 17.2832 127.275 17.4395 127.09 17.5566V29.5684H123.34V17.4688C123.301 17.1562 123.208 16.8926 123.062 16.6777C122.925 16.4629 122.778 16.2871 122.622 16.1504C122.446 15.9844 122.246 15.8477 122.021 15.7402L123.574 12.8691C123.936 12.9961 124.292 13.167 124.644 13.3818C124.946 13.5674 125.264 13.8066 125.596 14.0996C125.938 14.3828 126.24 14.7344 126.504 15.1543C127.002 14.8125 127.461 14.5244 127.881 14.29C128.301 14.0459 128.706 13.8408 129.097 13.6748C129.497 13.5088 129.907 13.3818 130.327 13.2939C130.757 13.1963 131.226 13.1182 131.733 13.0596C132.251 13.001 132.827 12.9619 133.462 12.9424C134.106 12.9131 134.854 12.8887 135.703 12.8691Z" fill="white"/>
<path d="M148.799 12.8691C149.961 12.8691 151.094 12.9424 152.197 13.0889C153.301 13.2256 154.292 13.4648 155.171 13.8066C156.05 14.1387 156.772 14.5928 157.339 15.1689C157.905 15.7451 158.242 16.4629 158.35 17.3223L154.951 18.2598C154.951 17.752 154.775 17.332 154.424 17C154.082 16.6582 153.623 16.3945 153.047 16.209C152.48 16.0137 151.826 15.877 151.084 15.7988C150.342 15.7207 149.58 15.6816 148.799 15.6816C148.047 15.6816 147.3 15.7207 146.558 15.7988C145.825 15.8672 145.166 15.999 144.58 16.1943C144.004 16.3799 143.535 16.6387 143.174 16.9707C142.822 17.3027 142.646 17.7324 142.646 18.2598V20.0469H158.35V25.1152C158.35 25.6914 158.223 26.2041 157.969 26.6533C157.715 27.0928 157.363 27.4785 156.914 27.8105C156.465 28.1328 155.933 28.4111 155.317 28.6455C154.712 28.8701 154.053 29.0508 153.34 29.1875C152.637 29.3242 151.895 29.4219 151.113 29.4805C150.342 29.5391 149.57 29.5684 148.799 29.5684C147.617 29.5684 146.475 29.5 145.371 29.3633C144.268 29.2168 143.276 28.9775 142.397 28.6455C141.519 28.3037 140.796 27.8496 140.229 27.2832C139.673 26.707 139.346 25.9844 139.248 25.1152L142.646 24.1777C142.646 24.7148 142.822 25.1494 143.174 25.4814C143.535 25.8135 144.004 26.0723 144.58 26.2578C145.166 26.4434 145.825 26.5703 146.558 26.6387C147.3 26.6973 148.047 26.7266 148.799 26.7266C149.58 26.7266 150.342 26.6924 151.084 26.624C151.826 26.5459 152.48 26.4141 153.047 26.2285C153.623 26.0332 154.082 25.7744 154.424 25.4521C154.775 25.1201 154.951 24.6953 154.951 24.1777V22.3906H139.248V17.3223C139.248 16.7461 139.375 16.2383 139.629 15.7988C139.883 15.3496 140.229 14.9639 140.669 14.6416C141.118 14.3096 141.646 14.0312 142.251 13.8066C142.856 13.5723 143.511 13.3867 144.214 13.25C144.927 13.1133 145.669 13.0156 146.44 12.957C147.222 12.8984 148.008 12.8691 148.799 12.8691Z" fill="white"/>
<path d="M172.939 12.8691C174.443 12.8691 175.732 12.9961 176.807 13.25C177.881 13.4941 178.76 13.8652 179.443 14.3633C180.137 14.8516 180.64 15.4619 180.952 16.1943C181.274 16.9268 181.436 17.7812 181.436 18.7578V29.5684H177.598V19.666C177.598 19.1191 177.524 18.6504 177.378 18.2598C177.231 17.8594 177.031 17.5225 176.777 17.249C176.533 16.9658 176.245 16.7363 175.913 16.5605C175.581 16.3848 175.234 16.2529 174.873 16.165C174.521 16.0674 174.16 16.0039 173.789 15.9746C173.418 15.9355 173.066 15.916 172.734 15.916C172.109 15.916 171.514 15.96 170.947 16.0479C170.381 16.1357 169.844 16.2578 169.336 16.4141C168.828 16.5605 168.35 16.7363 167.9 16.9414C167.451 17.1465 167.031 17.3613 166.641 17.5859V29.5684H162.803V7.27344H166.641V14.8027C167.09 14.5293 167.549 14.2754 168.018 14.041C168.486 13.8066 168.975 13.6016 169.482 13.4258C170 13.25 170.542 13.1133 171.108 13.0156C171.685 12.918 172.295 12.8691 172.939 12.8691Z" fill="white"/>
<path d="M190.225 29.5684H186.504V12.8691H190.225V29.5684ZM188.379 7.06836C189.102 7.06836 189.673 7.19043 190.093 7.43457C190.513 7.66895 190.723 8.04492 190.723 8.5625V9.29492C190.723 9.76367 190.513 10.1006 190.093 10.3057C189.673 10.5107 189.102 10.6133 188.379 10.6133C187.686 10.6133 187.124 10.5107 186.694 10.3057C186.274 10.1006 186.064 9.76367 186.064 9.29492V8.5625C186.064 8.04492 186.274 7.66895 186.694 7.43457C187.124 7.19043 187.686 7.06836 188.379 7.06836Z" fill="white"/>
<path d="M195.586 13.748C195.859 13.6699 196.26 13.5723 196.787 13.4551C197.324 13.3379 197.959 13.2305 198.691 13.1328C199.424 13.0254 200.239 12.9375 201.138 12.8691C202.046 12.791 203.018 12.752 204.053 12.752C205.889 12.752 207.505 12.8887 208.901 13.1621C210.308 13.4355 211.484 13.8994 212.432 14.5537C213.379 15.208 214.092 16.0771 214.57 17.1611C215.059 18.2451 215.303 19.5977 215.303 21.2188C215.303 22.8105 215.039 24.1436 214.512 25.2178C213.984 26.2822 213.262 27.1367 212.344 27.7812C211.426 28.4258 210.352 28.8848 209.121 29.1582C207.891 29.4316 206.572 29.5684 205.166 29.5684C204.014 29.5684 202.944 29.5 201.958 29.3633C200.972 29.2266 200.098 29.002 199.336 28.6895V35.1348H195.586V13.748ZM204.229 15.8867C203.594 15.8867 203.027 15.9062 202.529 15.9453C202.041 15.9844 201.597 16.0381 201.196 16.1064C200.806 16.165 200.459 16.2383 200.156 16.3262C199.854 16.4043 199.58 16.4922 199.336 16.5898V25.9648C199.756 26.082 200.146 26.1797 200.508 26.2578C200.879 26.3262 201.274 26.3799 201.694 26.4189C202.124 26.458 202.612 26.4873 203.159 26.5068C203.716 26.5166 204.385 26.5215 205.166 26.5215C206.318 26.5215 207.3 26.3896 208.11 26.126C208.931 25.8525 209.6 25.4814 210.117 25.0127C210.645 24.5439 211.03 23.9873 211.274 23.3428C211.519 22.6885 211.641 21.9805 211.641 21.2188C211.641 20.1836 211.475 19.3242 211.143 18.6406C210.811 17.957 210.327 17.4102 209.692 17C209.058 16.5898 208.281 16.3018 207.363 16.1357C206.445 15.9697 205.4 15.8867 204.229 15.8867Z" fill="white"/>
</svg>
